<svg width="18" height="20" fill="none" xmlns="http://www.w3.org/2000/svg"><path fill-rule="evenodd" clip-rule="evenodd" d="M16.583 3.81h-2.938C13.316 1.625 11.348 0 9.026 0c-2.321 0-4.29 1.624-4.619 3.81H1.469c-.782 0-1.417.605-1.417 1.35v13.484c0 .745.635 1.349 1.417 1.349h15.114c.783 0 1.417-.604 1.417-1.349V5.16c0-.744-.634-1.348-1.417-1.348zM9.026 1.339c1.504.095 2.78 1.088 3.174 2.473H5.852c.394-1.385 1.67-2.378 3.174-2.473zm7.557 17.306H1.469V5.16h2.834v1.349c0 .372.317.674.708.674.391 0 .709-.302.709-.674v-1.35h6.612v1.349c0 .372.317.674.708.674.392 0 .709-.302.709-.674V5.159h2.834v13.485z" fill="#000"/></svg>