<svg width="20" height="18" fill="none" xmlns="http://www.w3.org/2000/svg"><path fill-rule="evenodd" clip-rule="evenodd" d="M9.683 10.788c2.602 0 4.723-2.418 4.723-5.394S12.286 0 9.683 0C7.08 0 4.96 2.418 4.96 5.394s2.125 5.394 4.723 5.394zm0-9.44c1.827 0 3.305 1.798 3.305 4.046 0 2.247-1.478 4.045-3.306 4.045S6.376 7.641 6.376 5.394c0-2.248 1.478-4.046 3.306-4.046z" fill="#000"/><path fill-rule="evenodd" clip-rule="evenodd" d="M14.004 10.338c-.391-.037-.74.235-.78.607-.038.373.247.705.638.742 2.198.246 3.9 1.945 4.053 4.045H1.45c.167-2.094 1.862-3.786 4.052-4.045.392-.037.677-.37.638-.742-.04-.372-.388-.644-.78-.607-.051 0-5.36.576-5.36 6.064 0 .372.317.674.708.674h17.948c.392 0 .709-.302.709-.674 0-5.488-5.309-6.064-5.36-6.064z" fill="#000"/></svg>