<svg width="18" height="19" viewBox="0 0 18 19" fill="none" xmlns="http://www.w3.org/2000/svg">
<path fill-rule="evenodd" clip-rule="evenodd" d="M17.8141 17.7563L13.5467 13.5119C16.5367 10.5034 16.6279 5.67385 13.7534 2.55462C10.8789 -0.564605 6.05802 -0.867542 2.81567 1.86731C-0.42668 4.60217 -0.940857 9.40509 1.64909 12.7643C4.23904 16.1236 9.01478 16.848 12.4844 14.4079L16.835 18.7585C17.1079 19.0128 17.5333 19.0053 17.7971 18.7415C18.0609 18.4777 18.0684 18.0523 17.8141 17.7794V17.7563ZM1.5065 7.96981C1.5065 4.39886 4.40133 1.50403 7.97228 1.50403C11.5432 1.50403 14.4381 4.39886 14.4381 7.96981C14.4381 11.5408 11.5432 14.4356 7.97228 14.4356C4.40133 14.4356 1.5065 11.5408 1.5065 7.96981Z" fill="black"/>
</svg>
