<svg width="20" height="18" viewBox="0 0 20 18" fill="none" xmlns="http://www.w3.org/2000/svg">
<path fill-rule="evenodd" clip-rule="evenodd" d="M9.6828 10.7879C12.2852 10.7879 14.4059 8.36962 14.4059 5.39395C14.4059 2.41829 12.2852 0 9.6828 0C7.08035 0 4.95967 2.41829 4.95967 5.39395C4.95967 8.36962 7.08508 10.7879 9.6828 10.7879ZM9.68224 1.3485C11.5101 1.3485 12.9884 3.14648 12.9884 5.39396C12.9884 7.64144 11.5101 9.43943 9.68224 9.43943C7.85439 9.43943 6.37606 7.64144 6.37606 5.39396C6.37606 3.14648 7.85439 1.3485 9.68224 1.3485Z" fill="black"/>
<path fill-rule="evenodd" clip-rule="evenodd" d="M14.0041 10.3384C13.6128 10.3011 13.2639 10.5728 13.2248 10.9452C13.1856 11.3176 13.4711 11.6496 13.8624 11.6869C16.0596 11.9326 17.7619 13.6319 17.9148 15.7323H1.45C1.61742 13.638 3.31232 11.946 5.50244 11.6869C5.89372 11.6496 6.17919 11.3176 6.14007 10.9452C6.10094 10.5728 5.75203 10.3011 5.36075 10.3384C5.3088 10.3384 0 10.9137 0 16.4021C0 16.7745 0.317192 17.0763 0.708469 17.0763H18.6564C19.0476 17.0763 19.3648 16.7745 19.3648 16.4021C19.3648 10.9137 14.056 10.3384 14.0041 10.3384Z" fill="black"/>
</svg>
