<svg width="22" height="19" viewBox="0 0 22 19" fill="none" xmlns="http://www.w3.org/2000/svg">
<path fill-rule="evenodd" clip-rule="evenodd" d="M16.607 0.0283203C14.3446 0.0283203 12.5356 1.66449 11.4115 2.74777C10.2638 1.67348 8.42178 0.0283203 6.16413 0.0283203C2.85794 0.0283203 0.5625 2.24434 0.5625 5.42227C0.5625 12.322 10.0607 18.0082 10.4811 18.2374C10.9394 18.5088 11.52 18.5088 11.9783 18.2374C12.3798 17.9992 21.8355 12.2861 21.8355 5.42677C21.8024 2.096 19.814 0.0283203 16.607 0.0283203ZM11.1749 17.1092C11.1749 17.1092 1.94595 11.6703 1.94595 5.42228C1.94595 3.00849 3.59432 1.37682 6.13064 1.37682C8.66696 1.37682 10.9199 4.52329 11.3922 4.52329C11.8645 4.52329 14.0513 1.37682 16.5876 1.37682C19.124 1.37682 20.3661 3.00849 20.3661 5.42228C20.385 11.6118 11.1749 17.1092 11.1749 17.1092Z" fill="black"/>
</svg>
