<svg width="48" height="33" viewBox="0 0 48 33" fill="none" xmlns="http://www.w3.org/2000/svg">
<path fill-rule="evenodd" clip-rule="evenodd" d="M0 3C0 1.34315 1.34315 0 3 0H44.1428C45.7997 0 47.1428 1.34315 47.1428 3V29.8571C47.1428 31.514 45.7997 32.8571 44.1428 32.8571H3C1.34315 32.8571 0 31.514 0 29.8571V3Z" fill="#262626"/>
<g opacity="0.01">
<rect x="9.28564" y="7.14258" width="28.4394" height="18.5501" fill="white"/>
</g>
<rect x="19.7554" y="10.375" width="7.50216" height="12.0842" fill="#FF5F00"/>
<path fill-rule="evenodd" clip-rule="evenodd" d="M20.5283 16.4182C20.5265 14.0604 21.6239 11.8328 23.5045 10.3771C20.3097 7.90093 15.7218 8.2616 12.965 11.2057C10.2083 14.1497 10.2083 18.6887 12.965 21.6328C15.7218 24.5768 20.3097 24.9375 23.5045 22.4613C21.6233 21.0052 20.5258 18.7766 20.5283 16.4182Z" fill="#EB001B"/>
<path fill-rule="evenodd" clip-rule="evenodd" d="M35.3828 20.9857V21.4879H35.3304V20.9857H35.2185V20.8818H35.5018V20.9857H35.3828ZM35.9326 20.8818V21.4879H35.8731V21.029L35.7802 21.423H35.7159L35.6231 21.029V21.4879H35.5612V20.8818H35.6469L35.7469 21.3147L35.8469 20.8818H35.9326Z" fill="#F79E1B"/>
<path fill-rule="evenodd" clip-rule="evenodd" d="M36.1124 16.4182C36.1123 19.3605 34.4088 22.0444 31.7253 23.3302C29.0418 24.6159 25.8495 24.2777 23.5042 22.4592C25.3839 21.0023 26.4815 18.775 26.4815 16.4171C26.4815 14.0593 25.3839 11.8319 23.5042 10.375C25.8495 8.55653 29.0418 8.21835 31.7253 9.50409C34.4088 10.7898 36.1123 13.4738 36.1124 16.4161V16.4182Z" fill="#F79E1B"/>
</svg>
