<svg width="22" height="19" fill="none" xmlns="http://www.w3.org/2000/svg"><path fill-rule="evenodd" clip-rule="evenodd" d="M16.607.028c-2.262 0-4.071 1.636-5.195 2.72-1.148-1.075-2.99-2.72-5.248-2.72C2.858.028.563 2.244.563 5.422c0 6.9 9.498 12.586 9.918 12.815a1.478 1.478 0 001.497 0c.402-.238 9.857-5.95 9.857-12.81-.033-3.331-2.021-5.399-5.228-5.399zM11.175 17.11s-9.23-5.439-9.23-11.687c.001-2.414 1.65-4.045 4.186-4.045s4.789 3.146 5.261 3.146c.473 0 2.66-3.146 5.196-3.146 2.536 0 3.778 1.631 3.778 4.045.019 6.19-9.191 11.687-9.191 11.687z" fill="#000"/></svg>