<svg width="40" height="40" fill="none" xmlns="http://www.w3.org/2000/svg"><path fill-rule="evenodd" clip-rule="evenodd" d="M20.002 0c-5.432 0-6.113.024-8.247.12-2.13.098-3.582.435-4.854.93a9.793 9.793 0 00-3.543 2.306A9.818 9.818 0 001.05 6.9C.554 8.17.216 9.625.12 11.753.025 13.886 0 14.569 0 20c0 5.432.024 6.111.12 8.245.099 2.13.436 3.582.93 4.854a9.8 9.8 0 002.307 3.543 9.793 9.793 0 003.541 2.308c1.273.495 2.727.832 4.856.93 2.133.097 2.814.12 8.245.12 5.433 0 6.112-.023 8.245-.12 2.13-.098 3.585-.435 4.857-.93a9.784 9.784 0 003.54-2.308A9.819 9.819 0 0038.95 33.1c.492-1.272.83-2.725.93-4.854.095-2.133.12-2.813.12-8.245 0-5.431-.025-6.113-.12-8.246-.1-2.13-.438-3.583-.93-4.855a9.816 9.816 0 00-2.308-3.543A9.774 9.774 0 0033.1 1.05C31.825.555 30.37.218 28.24.12 26.108.025 25.43 0 19.996 0h.006zm-1.794 3.604h1.794c5.34 0 5.973.02 8.082.115 1.95.09 3.008.415 3.713.69.933.362 1.599.795 2.299 1.495.7.7 1.133 1.367 1.496 2.3.274.704.6 1.763.689 3.713.096 2.108.117 2.741.117 8.079 0 5.337-.021 5.97-.117 8.08-.09 1.95-.415 3.007-.689 3.712a6.184 6.184 0 01-1.496 2.297c-.7.7-1.365 1.133-2.299 1.496-.704.275-1.763.6-3.713.69-2.109.095-2.742.116-8.082.116-5.34 0-5.973-.021-8.082-.117-1.95-.09-3.008-.416-3.714-.69-.933-.362-1.6-.795-2.3-1.495-.7-.7-1.133-1.365-1.496-2.3-.274-.703-.6-1.762-.689-3.712-.096-2.108-.115-2.741-.115-8.082 0-5.341.02-5.971.115-8.08.09-1.95.415-3.008.689-3.713.362-.933.796-1.6 1.496-2.3.7-.7 1.367-1.133 2.3-1.497.705-.275 1.764-.6 3.714-.69 1.845-.082 2.56-.107 6.288-.112v.005zm12.47 3.32a2.4 2.4 0 10-.001 4.802 2.4 2.4 0 000-4.802zM20.002 9.73C14.329 9.73 9.731 14.329 9.731 20c0 5.673 4.598 10.27 10.27 10.27 5.673 0 10.27-4.597 10.27-10.27 0-5.671-4.598-10.27-10.27-10.27zm0 3.605a6.667 6.667 0 110 13.333 6.667 6.667 0 010-13.333z" fill="#D5A368"/></svg>