<svg width="22" height="23" fill="none" xmlns="http://www.w3.org/2000/svg"><path fill-rule="evenodd" clip-rule="evenodd" d="M11.001.973c-2.897 0-3.26.012-4.398.064-1.136.052-1.91.232-2.589.496a5.223 5.223 0 00-1.89 1.23 5.236 5.236 0 00-1.23 1.889C.628 5.33.448 6.106.397 7.241.347 8.379.333 8.743.333 11.639c0 2.897.013 3.26.065 4.398.052 1.135.232 1.91.496 2.588a5.227 5.227 0 001.23 1.89 5.223 5.223 0 001.889 1.231c.678.264 1.454.444 2.589.496 1.138.052 1.501.064 4.398.064s3.26-.012 4.397-.064c1.136-.052 1.912-.232 2.59-.496a5.22 5.22 0 001.889-1.23 5.236 5.236 0 001.23-1.89c.263-.679.443-1.454.496-2.59.052-1.137.065-1.5.065-4.397 0-2.896-.014-3.26-.065-4.398-.053-1.135-.233-1.91-.495-2.589a5.235 5.235 0 00-1.231-1.89 5.213 5.213 0 00-1.89-1.23c-.68-.263-1.455-.443-2.59-.495-1.138-.052-1.5-.064-4.398-.064H11zm-.957 1.922h.957c2.848 0 3.186.01 4.31.061 1.04.048 1.605.222 1.981.368a3.3 3.3 0 011.226.797c.373.374.604.73.798 1.227.146.376.32.94.367 1.98.051 1.125.063 1.462.063 4.309 0 2.847-.012 3.184-.063 4.309-.047 1.04-.221 1.604-.367 1.98a3.298 3.298 0 01-.798 1.225 3.3 3.3 0 01-1.226.798c-.376.147-.94.32-1.98.368-1.125.05-1.463.062-4.31.062-2.849 0-3.187-.011-4.311-.062-1.04-.048-1.604-.222-1.98-.368a3.305 3.305 0 01-1.227-.798 3.307 3.307 0 01-.799-1.226c-.146-.376-.32-.94-.367-1.98-.051-1.124-.061-1.462-.061-4.31 0-2.85.01-3.185.061-4.31.048-1.04.221-1.604.367-1.98.194-.498.425-.853.799-1.227A3.31 3.31 0 014.71 3.32c.376-.147.941-.32 1.981-.368.984-.044 1.365-.058 3.353-.06v.003zm6.65 1.77a1.28 1.28 0 100 2.561 1.28 1.28 0 000-2.56zm-5.693 1.496a5.478 5.478 0 100 10.957 5.478 5.478 0 000-10.957zm0 1.923a3.556 3.556 0 110 7.111 3.556 3.556 0 010-7.111z" fill="#fff"/></svg>