<svg width="18" height="22" fill="none" xmlns="http://www.w3.org/2000/svg"><path fill-rule="evenodd" clip-rule="evenodd" d="M9 0a9.235 9.235 0 00-9 9 9.97 9.97 0 001.175 4.155l.07.125C6.685 22 8.31 22 9 22c1.08 0 2.245-.76 5-4.635 1.445-2 2.685-4 2.735-4.09l.07-.12A9.969 9.969 0 0018 9a9.235 9.235 0 00-9-9zm6.5 12.5s-5 8-6.5 8-6.5-8-6.5-8a8.53 8.53 0 01-1-3.5 7.5 7.5 0 0115 0 8.53 8.53 0 01-1.015 3.5h.015z" fill="#D5A368"/><path fill-rule="evenodd" clip-rule="evenodd" d="M9 4.5a4 4 0 100 8 4 4 0 000-8zM9 11a2.5 2.5 0 110-5 2.5 2.5 0 010 5z" fill="#D5A368"/></svg>