<svg width="18" height="20" viewBox="0 0 18 20" fill="none" xmlns="http://www.w3.org/2000/svg">
<path fill-rule="evenodd" clip-rule="evenodd" d="M16.5832 3.81076H13.6454C13.316 1.62389 11.3476 0 9.02619 0C6.70481 0 4.73641 1.62389 4.40697 3.81076H1.46918C0.686631 3.81076 0.0522461 4.4145 0.0522461 5.15925V18.6441C0.0522461 19.3889 0.686631 19.9926 1.46918 19.9926H16.5832C17.3657 19.9926 18.0001 19.3889 18.0001 18.6441V5.15925C18.0001 4.4145 17.3657 3.81076 16.5832 3.81076ZM9.02582 1.33849C10.5301 1.43259 11.8054 2.42593 12.1998 3.81072H5.85188C6.24621 2.42593 7.52151 1.43259 9.02582 1.33849ZM16.5828 18.6441H1.46877V5.15921H4.30265V6.5077C4.30265 6.88008 4.61984 7.18195 5.01111 7.18195C5.40239 7.18195 5.71958 6.88008 5.71958 6.5077V5.15921H12.332V6.5077C12.332 6.88008 12.6492 7.18195 13.0404 7.18195C13.4317 7.18195 13.7489 6.88008 13.7489 6.5077V5.15921H16.5828V18.6441Z" fill="black"/>
</svg>
