<svg width="48" height="33" viewBox="0 0 48 33" fill="none" xmlns="http://www.w3.org/2000/svg">
<path fill-rule="evenodd" clip-rule="evenodd" d="M0.428711 3C0.428711 1.34315 1.77186 0 3.42871 0H44.5716C46.2284 0 47.5716 1.34315 47.5716 3V29.8571C47.5716 31.514 46.2284 32.8571 44.5716 32.8571H3.42871C1.77186 32.8571 0.428711 31.514 0.428711 29.8571V3Z" fill="#0742A6"/>
<path fill-rule="evenodd" clip-rule="evenodd" d="M21.8731 21.2456H19.3447L20.9261 11.7227H23.4544L21.8731 21.2456Z" fill="white"/>
<path fill-rule="evenodd" clip-rule="evenodd" d="M31.039 11.9562C30.5403 11.7635 29.7493 11.5508 28.7712 11.5508C26.2744 11.5508 24.5161 12.8475 24.5054 14.7013C24.4846 16.0691 25.7642 16.8288 26.7212 17.2848C27.6994 17.7508 28.0319 18.055 28.0319 18.4704C28.022 19.1084 27.2415 19.4025 26.5136 19.4025C25.5041 19.4025 24.9633 19.2508 24.1413 18.8959L23.8084 18.7437L23.4546 20.8814C24.0476 21.1445 25.1401 21.378 26.2744 21.3883C28.9273 21.3883 30.6545 20.1116 30.6749 18.1361C30.685 17.052 30.0093 16.2214 28.5526 15.5426C27.6683 15.1069 27.1268 14.8131 27.1268 14.3672C27.1371 13.9619 27.5848 13.5468 28.5831 13.5468C29.405 13.5265 30.0089 13.7189 30.4664 13.9115L30.6951 14.0126L31.039 11.9562Z" fill="white"/>
<path fill-rule="evenodd" clip-rule="evenodd" d="M35.5643 11.7227H37.52L39.5598 21.2455H37.2187C37.2187 21.2455 36.9897 20.1513 36.9171 19.817H33.6709C33.577 20.0701 33.1402 21.2455 33.1402 21.2455H30.4873L34.2428 12.5128C34.5031 11.8947 34.9612 11.7227 35.5643 11.7227ZM35.4088 15.2086C35.4088 15.2086 34.6076 17.3259 34.3994 17.873H36.501C36.397 17.3969 35.9182 15.1174 35.9182 15.1174L35.7415 14.2969C35.6671 14.5082 35.5595 14.7986 35.4869 14.9946C35.4377 15.1274 35.4046 15.2168 35.4088 15.2086Z" fill="white"/>
<path fill-rule="evenodd" clip-rule="evenodd" d="M17.233 11.7227L14.7569 18.2164L14.4863 16.8994C14.0286 15.3797 12.5929 13.7287 10.9907 12.9077L13.2587 21.2355H15.9324L19.9065 11.7227H17.233V11.7227Z" fill="white"/>
<path fill-rule="evenodd" clip-rule="evenodd" d="M12.4576 11.7227H8.38976L8.34814 11.9151C11.5213 12.7053 13.6229 14.6102 14.4863 16.8998L13.602 12.5231C13.4564 11.9149 13.009 11.7427 12.4576 11.7227Z" fill="white"/>
</svg>
