<svg width="48" height="33" viewBox="0 0 48 33" fill="none" xmlns="http://www.w3.org/2000/svg">
<path fill-rule="evenodd" clip-rule="evenodd" d="M0.428711 3C0.428711 1.34315 1.77186 0 3.42871 0H44.5716C46.2284 0 47.5716 1.34315 47.5716 3V29.8571C47.5716 31.514 46.2284 32.8571 44.5716 32.8571H3.42871C1.77186 32.8571 0.428711 31.514 0.428711 29.8571V3Z" fill="#016FD0"/>
<path fill-rule="evenodd" clip-rule="evenodd" d="M9.58643 24.8508V17.5215H17.3881L18.2251 18.6069L19.0898 17.5215H47.4078V24.3453C47.4078 24.3453 46.6672 24.8435 45.8107 24.8508H30.1305L29.1868 23.6954V24.8508H26.0943V22.8786C26.0943 22.8786 25.6718 23.1539 24.7585 23.1539H23.7059V24.8508H19.0236L18.1878 23.7421L17.3391 24.8508H9.58643Z" fill="white"/>
<path fill-rule="evenodd" clip-rule="evenodd" d="M0.47583 11.9959L2.23513 7.91602H5.27765L6.27608 10.2014V7.91602H10.0582L10.6526 9.56782L11.2288 7.91602H28.2067V8.74643C28.2067 8.74643 29.0992 7.91602 30.566 7.91602L36.0747 7.93517L37.0559 10.1906V7.91602H40.221L41.0921 9.2116V7.91602H44.2862V15.2453H41.0921L40.2572 13.9456V15.2453H35.607L35.1394 14.09H33.8892L33.4292 15.2453H30.2756C29.0135 15.2453 28.2067 14.4319 28.2067 14.4319V15.2453H23.4518L22.5081 14.09V15.2453H4.82692L4.3596 14.09H3.11345L2.64943 15.2453H0.47583L0.47583 11.9959Z" fill="white"/>
<path fill-rule="evenodd" clip-rule="evenodd" d="M0.484863 14.3083L2.85777 8.82031H4.65674L7.02738 14.3083H5.44847L5.0129 13.2093H2.46758L2.02975 14.3083H0.484863ZM4.51148 12.018L3.73563 10.0977L2.95752 12.018H4.51148Z" fill="#016FD0"/>
<path fill-rule="evenodd" clip-rule="evenodd" d="M7.19092 14.3083V8.82031L9.38629 8.82842L10.6632 12.3667L11.9095 8.82031H14.0873V14.3083H12.7081V10.2645L11.246 14.3083H10.0363L8.5702 10.2645V14.3083H7.19092Z" fill="#016FD0"/>
<path fill-rule="evenodd" clip-rule="evenodd" d="M15.0308 14.3083V8.82031H19.5316V10.0479H16.4246V10.9866H19.459V12.142H16.4246V13.1168H19.5316V14.3083H15.0308Z" fill="#016FD0"/>
<path fill-rule="evenodd" clip-rule="evenodd" d="M20.3301 14.3083V8.82031H23.3994C24.4165 8.82031 25.3277 9.44588 25.3277 10.6007C25.3277 11.588 24.5594 12.2239 23.8146 12.2864L25.6294 14.3083H23.9439L22.2901 12.3586H21.7094V14.3083H20.3301ZM23.2861 10.0479H21.7095V11.2032H23.3065C23.583 11.2032 23.9395 10.9901 23.9395 10.6255C23.9395 10.3421 23.6643 10.0479 23.2861 10.0479Z" fill="#016FD0"/>
<path fill-rule="evenodd" clip-rule="evenodd" d="M27.2992 14.3083H25.8909V8.82031H27.2992V14.3083Z" fill="#016FD0"/>
<path fill-rule="evenodd" clip-rule="evenodd" d="M30.6385 14.3083H30.3345C28.8637 14.3083 27.9707 13.1556 27.9707 11.5869C27.9707 9.97934 28.8537 8.82031 30.7111 8.82031H32.2356V10.1201H30.6554C29.9014 10.1201 29.3681 10.7054 29.3681 11.6004C29.3681 12.6632 29.9779 13.1096 30.8563 13.1096H31.2193L30.6385 14.3083Z" fill="#016FD0"/>
<path fill-rule="evenodd" clip-rule="evenodd" d="M31.2668 14.3083L33.6398 8.82031H35.4387L37.8094 14.3083H36.2304L35.7949 13.2093H33.2496L32.8117 14.3083H31.2668ZM35.2935 12.018L34.5176 10.0977L33.7395 12.018H35.2935Z" fill="#016FD0"/>
<path fill-rule="evenodd" clip-rule="evenodd" d="M37.9707 14.3083V8.82031H39.7243L41.9634 12.2683V8.82031H43.3426V14.3083H41.6458L39.35 10.77V14.3083H37.9707Z" fill="#016FD0"/>
<path fill-rule="evenodd" clip-rule="evenodd" d="M10.5298 23.9118V18.4238H15.0306V19.6514H11.9236V20.5901H14.958V21.7455H11.9236V22.7203H15.0306V23.9118H10.5298Z" fill="#016FD0"/>
<path fill-rule="evenodd" clip-rule="evenodd" d="M32.584 23.9118V18.4238H37.0848V19.6514H33.9778V20.5901H36.9977V21.7455H33.9778V22.7203H37.0848V23.9118H32.584Z" fill="#016FD0"/>
<path fill-rule="evenodd" clip-rule="evenodd" d="M15.2055 23.9118L17.3969 21.2017L15.1533 18.4238H16.891L18.2272 20.1411L19.5679 18.4238H21.2376L19.0235 21.1678L21.2189 23.9118H19.4815L18.1841 22.2216L16.9183 23.9118H15.2055Z" fill="#016FD0"/>
<path fill-rule="evenodd" clip-rule="evenodd" d="M21.3828 23.9128V18.4248H24.4295C25.6796 18.4248 26.4099 19.2263 26.4099 20.2707C26.4099 21.5314 25.4788 22.1797 24.2503 22.1797H22.7984V23.9128H21.3828ZM24.3278 19.666H22.7988V20.9297H24.3233C24.7261 20.9297 25.0084 20.6641 25.0084 20.2979C25.0084 19.908 24.7247 19.666 24.3278 19.666Z" fill="#016FD0"/>
<path fill-rule="evenodd" clip-rule="evenodd" d="M27.0088 23.9118V18.4238H30.0781C31.0952 18.4238 32.0064 19.0494 32.0064 20.2043C32.0064 21.1915 31.2381 21.8274 30.4933 21.8899L32.3081 23.9118H30.6226L28.9688 21.9621H28.3881V23.9118H27.0088ZM29.9648 19.6504H28.3882V20.8057H29.9852C30.2617 20.8057 30.6182 20.5927 30.6182 20.2281C30.6182 19.9447 30.343 19.6504 29.9648 19.6504Z" fill="#016FD0"/>
<path fill-rule="evenodd" clip-rule="evenodd" d="M37.7237 23.9118V22.7203H40.4841C40.8925 22.7203 41.0694 22.5008 41.0694 22.26C41.0694 22.0293 40.8931 21.796 40.4841 21.796H39.2367C38.1524 21.796 37.5486 21.1389 37.5486 20.1524C37.5486 19.2724 38.1016 18.4238 39.7128 18.4238H42.3988L41.818 19.6586H39.495C39.051 19.6586 38.9143 19.8904 38.9143 20.1117C38.9143 20.3392 39.0832 20.5901 39.4224 20.5901H40.7291C41.9378 20.5901 42.4623 21.2721 42.4623 22.1652C42.4623 23.1254 41.8778 23.9118 40.6633 23.9118H37.7237Z" fill="#016FD0"/>
<path fill-rule="evenodd" clip-rule="evenodd" d="M42.786 23.9118V22.7203H45.5464C45.9548 22.7203 46.1316 22.5008 46.1316 22.26C46.1316 22.0293 45.9553 21.796 45.5464 21.796H44.299C43.2147 21.796 42.6108 21.1389 42.6108 20.1524C42.6108 19.2724 43.1638 18.4238 44.775 18.4238H47.461L46.8803 19.6586H44.5573C44.1132 19.6586 43.9765 19.8904 43.9765 20.1117C43.9765 20.3392 44.1454 20.5901 44.4847 20.5901H45.7914C47.0001 20.5901 47.5245 21.2721 47.5245 22.1652C47.5245 23.1254 46.9401 23.9118 45.7256 23.9118H42.786Z" fill="#016FD0"/>
</svg>
