<svg width="18" height="20" viewBox="0 0 18 20" fill="none" xmlns="http://www.w3.org/2000/svg">
<path fill-rule="evenodd" clip-rule="evenodd" d="M16.5309 3.81076H13.5932C13.2637 1.62389 11.2953 0 8.97394 0C6.65257 0 4.68417 1.62389 4.35472 3.81076H1.41694C0.634385 3.81076 0 4.4145 0 5.15925V18.6441C0 19.3889 0.634385 19.9926 1.41694 19.9926H16.5309C17.3135 19.9926 17.9479 19.3889 17.9479 18.6441V5.15925C17.9479 4.4145 17.3135 3.81076 16.5309 3.81076ZM8.97358 1.33849C10.4779 1.43259 11.7532 2.42593 12.1475 3.81072H5.79964C6.19397 2.42593 7.46926 1.43259 8.97358 1.33849ZM16.5305 18.6441H1.41652V5.15921H4.2504V6.5077C4.2504 6.88008 4.56759 7.18195 4.95887 7.18195C5.35014 7.18195 5.66734 6.88008 5.66734 6.5077V5.15921H12.2797V6.5077C12.2797 6.88008 12.5969 7.18195 12.9882 7.18195C13.3795 7.18195 13.6967 6.88008 13.6967 6.5077V5.15921H16.5305V18.6441Z" fill="black"/>
</svg>
