<svg width="150" height="40" viewBox="0 0 150 40" fill="none" xmlns="http://www.w3.org/2000/svg">
<path d="M0.5 20C0.5 9.23045 9.23045 0.5 20 0.5H130C140.77 0.5 149.5 9.23045 149.5 20C149.5 30.7696 140.77 39.5 130 39.5H20C9.23045 39.5 0.5 30.7696 0.5 20Z" stroke="#DBDBDB"/>
<path fill-rule="evenodd" clip-rule="evenodd" d="M27 9C22.0816 9.12364 18.1236 13.0816 18 18C18.0834 19.4542 18.4845 20.8725 19.175 22.155L19.245 22.28C24.685 31 26.31 31 27 31C28.08 31 29.245 30.24 32 26.365C33.445 24.365 34.685 22.365 34.735 22.275L34.805 22.155C35.5025 20.8741 35.9104 19.4557 36 18C35.8764 13.0816 31.9184 9.12364 27 9ZM33.5002 21.5002C33.5002 21.5002 28.5002 29.5002 27.0002 29.5002C25.5002 29.5002 20.5002 21.5002 20.5002 21.5002C19.9189 20.4191 19.5778 19.2252 19.5002 18.0002C19.5002 13.858 22.858 10.5002 27.0002 10.5002C31.1423 10.5002 34.5002 13.858 34.5002 18.0002C34.4179 19.2263 34.0717 20.4203 33.4852 21.5002H33.5002Z" fill="#D5A368"/>
<path fill-rule="evenodd" clip-rule="evenodd" d="M26.9999 13.5C24.7907 13.5 22.9999 15.2909 22.9999 17.5C22.9999 19.7091 24.7907 21.5 26.9999 21.5C29.209 21.5 30.9999 19.7091 30.9999 17.5C30.9999 15.2909 29.209 13.5 26.9999 13.5ZM26.9999 20.0002C25.6192 20.0002 24.4999 18.8809 24.4999 17.5002C24.4999 16.1195 25.6192 15.0002 26.9999 15.0002C28.3807 15.0002 29.4999 16.1195 29.4999 17.5002C29.4999 18.8809 28.3807 20.0002 26.9999 20.0002Z" fill="#D5A368"/>
<path d="M47.105 25V15.77H53.202V16.81H48.275V19.891H52.422V20.866H48.275V25H47.105ZM55.7507 25V18.214H56.8947V25H55.7507ZM55.7507 16.94V15.51H56.8947V16.94H55.7507ZM65.8723 25H64.7283V21.204C64.7283 20.476 64.6157 19.9473 64.3903 19.618C64.1737 19.2887 63.84 19.124 63.3893 19.124C63.1553 19.124 62.9213 19.1717 62.6873 19.267C62.4533 19.3537 62.2323 19.475 62.0243 19.631C61.8163 19.787 61.6343 19.9733 61.4783 20.19C61.3223 20.4067 61.2053 20.645 61.1273 20.905V25H59.9833V18.214H61.0233V19.67C61.292 19.1933 61.6777 18.812 62.1803 18.526C62.6917 18.24 63.2463 18.097 63.8443 18.097C64.2343 18.097 64.5593 18.1707 64.8193 18.318C65.0793 18.4567 65.2873 18.656 65.4433 18.916C65.5993 19.1673 65.7077 19.4663 65.7683 19.813C65.8377 20.1597 65.8723 20.5367 65.8723 20.944V25ZM71.7085 25.13C71.2405 25.13 70.8072 25.0347 70.4085 24.844C70.0098 24.6533 69.6675 24.3977 69.3815 24.077C69.0955 23.7563 68.8702 23.3837 68.7055 22.959C68.5495 22.5343 68.4715 22.088 68.4715 21.62C68.4715 21.1433 68.5452 20.6927 68.6925 20.268C68.8485 19.8347 69.0608 19.4577 69.3295 19.137C69.6068 18.8163 69.9318 18.565 70.3045 18.383C70.6858 18.1923 71.1018 18.097 71.5525 18.097C72.0985 18.097 72.5838 18.24 73.0085 18.526C73.4418 18.812 73.7842 19.1587 74.0355 19.566V15.51H75.1795V23.596C75.1795 23.8647 75.3008 24.0033 75.5435 24.012V25C75.4482 25.0173 75.3615 25.0303 75.2835 25.039C75.2142 25.0477 75.1492 25.052 75.0885 25.052C74.8285 25.052 74.6205 24.987 74.4645 24.857C74.3085 24.7183 74.2262 24.5537 74.2175 24.363L74.1915 23.726C73.9228 24.168 73.5632 24.5147 73.1125 24.766C72.6705 25.0087 72.2025 25.13 71.7085 25.13ZM71.9815 24.142C72.1895 24.142 72.4018 24.103 72.6185 24.025C72.8438 23.947 73.0518 23.8387 73.2425 23.7C73.4418 23.5613 73.6108 23.401 73.7495 23.219C73.8968 23.0283 73.9922 22.829 74.0355 22.621V20.671C73.9575 20.4543 73.8405 20.2507 73.6845 20.06C73.5285 19.8607 73.3508 19.6917 73.1515 19.553C72.9608 19.4057 72.7528 19.293 72.5275 19.215C72.3108 19.1283 72.0942 19.085 71.8775 19.085C71.5395 19.085 71.2318 19.1587 70.9545 19.306C70.6858 19.4447 70.4518 19.6353 70.2525 19.878C70.0618 20.112 69.9145 20.385 69.8105 20.697C69.7065 21.0003 69.6545 21.3123 69.6545 21.633C69.6545 21.971 69.7152 22.296 69.8365 22.608C69.9578 22.9113 70.1225 23.1757 70.3305 23.401C70.5385 23.6263 70.7812 23.8083 71.0585 23.947C71.3445 24.077 71.6522 24.142 71.9815 24.142ZM84.7974 25.13C84.4594 25.13 84.1474 25.078 83.8614 24.974C83.5754 24.8613 83.3284 24.714 83.1204 24.532C82.9124 24.3413 82.7477 24.1203 82.6264 23.869C82.5137 23.609 82.4574 23.336 82.4574 23.05C82.4574 22.7293 82.5267 22.439 82.6654 22.179C82.804 21.9103 82.999 21.685 83.2504 21.503C83.5104 21.3123 83.8137 21.1693 84.1604 21.074C84.5157 20.97 84.9014 20.918 85.3174 20.918C85.6467 20.918 85.9804 20.9483 86.3184 21.009C86.6564 21.0697 86.9554 21.152 87.2154 21.256V20.71C87.2154 20.1553 87.0594 19.722 86.7474 19.41C86.4354 19.0893 85.9934 18.929 85.4214 18.929C84.7367 18.929 84.0174 19.1933 83.2634 19.722L82.8864 18.981C83.3284 18.6863 83.766 18.4653 84.1994 18.318C84.6327 18.1707 85.0834 18.097 85.5514 18.097C86.418 18.097 87.1027 18.3353 87.6054 18.812C88.108 19.2887 88.3594 19.9603 88.3594 20.827V23.596C88.3594 23.8647 88.4807 24.0033 88.7234 24.012V25C88.6367 25.0173 88.5544 25.0303 88.4764 25.039C88.3984 25.0477 88.3247 25.052 88.2554 25.052C88.0647 25.052 87.8784 25 87.6964 24.896C87.5144 24.792 87.4147 24.6143 87.3974 24.363L87.3714 23.882C87.2154 24.09 87.0377 24.272 86.8384 24.428C86.639 24.584 86.4267 24.714 86.2014 24.818C85.976 24.922 85.742 25 85.4994 25.052C85.2654 25.104 85.0314 25.13 84.7974 25.13ZM85.0834 24.272C85.4474 24.272 85.8027 24.194 86.1494 24.038C86.496 23.882 86.769 23.6913 86.9684 23.466C87.133 23.2753 87.2154 23.0977 87.2154 22.933V21.932C86.9467 21.828 86.6607 21.75 86.3574 21.698C86.0627 21.6373 85.7767 21.607 85.4994 21.607C84.91 21.607 84.4377 21.7283 84.0824 21.971C83.727 22.205 83.5494 22.53 83.5494 22.946C83.5494 23.1193 83.584 23.2883 83.6534 23.453C83.7227 23.609 83.8224 23.7477 83.9524 23.869C84.0824 23.9903 84.2427 24.09 84.4334 24.168C84.624 24.2373 84.8407 24.272 85.0834 24.272ZM101.718 17.707C101.614 17.5857 101.476 17.4687 101.302 17.356C101.129 17.2433 100.934 17.1437 100.717 17.057C100.501 16.9617 100.262 16.888 100.002 16.836C99.7511 16.7753 99.4867 16.745 99.2094 16.745C98.4901 16.745 97.9614 16.8793 97.6234 17.148C97.2941 17.4167 97.1294 17.785 97.1294 18.253C97.1294 18.5043 97.1771 18.7123 97.2724 18.877C97.3677 19.0417 97.5151 19.1847 97.7144 19.306C97.9224 19.4187 98.1781 19.5183 98.4814 19.605C98.7847 19.6917 99.1444 19.7827 99.5604 19.878C100.037 19.982 100.466 20.1033 100.847 20.242C101.237 20.372 101.567 20.5367 101.835 20.736C102.113 20.9353 102.321 21.178 102.459 21.464C102.607 21.75 102.68 22.101 102.68 22.517C102.68 22.959 102.594 23.3447 102.42 23.674C102.247 23.9947 102.009 24.2633 101.705 24.48C101.411 24.688 101.06 24.844 100.652 24.948C100.245 25.0433 99.8031 25.091 99.3264 25.091C98.6157 25.091 97.9397 24.9827 97.2984 24.766C96.6657 24.5407 96.0894 24.2157 95.5694 23.791L96.1284 22.803C96.2671 22.9503 96.4447 23.0977 96.6614 23.245C96.8867 23.3923 97.1381 23.5267 97.4154 23.648C97.7014 23.7607 98.0047 23.856 98.3254 23.934C98.6547 24.0033 98.9971 24.038 99.3524 24.038C100.011 24.038 100.522 23.921 100.886 23.687C101.25 23.453 101.432 23.102 101.432 22.634C101.432 22.374 101.372 22.1573 101.25 21.984C101.138 21.802 100.969 21.646 100.743 21.516C100.518 21.386 100.236 21.2733 99.8984 21.178C99.5691 21.074 99.1921 20.97 98.7674 20.866C98.2994 20.7533 97.8877 20.632 97.5324 20.502C97.1771 20.372 96.8781 20.216 96.6354 20.034C96.4014 19.852 96.2237 19.631 96.1024 19.371C95.9811 19.111 95.9204 18.799 95.9204 18.435C95.9204 17.993 96.0027 17.603 96.1674 17.265C96.3321 16.927 96.5617 16.641 96.8564 16.407C97.1511 16.173 97.5021 15.9997 97.9094 15.887C98.3167 15.7657 98.7587 15.705 99.2354 15.705C99.8594 15.705 100.423 15.8003 100.925 15.991C101.428 16.1817 101.874 16.4373 102.264 16.758L101.718 17.707ZM108.707 24.662C108.637 24.6967 108.546 24.74 108.434 24.792C108.321 24.8353 108.191 24.883 108.044 24.935C107.905 24.9783 107.749 25.013 107.576 25.039C107.411 25.0737 107.238 25.091 107.056 25.091C106.64 25.091 106.28 24.9783 105.977 24.753C105.673 24.519 105.522 24.1593 105.522 23.674V19.111H104.599V18.214H105.522V15.952H106.666V18.214H108.187V19.111H106.666V23.323C106.683 23.5743 106.765 23.7563 106.913 23.869C107.06 23.9817 107.233 24.038 107.433 24.038C107.658 24.038 107.862 24.0033 108.044 23.934C108.234 23.856 108.364 23.7953 108.434 23.752L108.707 24.662ZM113.854 25.13C113.342 25.13 112.874 25.0347 112.45 24.844C112.034 24.6533 111.674 24.3977 111.371 24.077C111.076 23.7563 110.846 23.3837 110.682 22.959C110.517 22.5343 110.435 22.088 110.435 21.62C110.435 21.1433 110.517 20.6927 110.682 20.268C110.855 19.8433 111.089 19.4707 111.384 19.15C111.687 18.8293 112.047 18.5737 112.463 18.383C112.887 18.1923 113.351 18.097 113.854 18.097C114.356 18.097 114.82 18.1923 115.245 18.383C115.669 18.5737 116.029 18.8293 116.324 19.15C116.627 19.4707 116.861 19.8433 117.026 20.268C117.199 20.6927 117.286 21.1433 117.286 21.62C117.286 22.088 117.203 22.5343 117.039 22.959C116.874 23.3837 116.64 23.7563 116.337 24.077C116.033 24.3977 115.669 24.6533 115.245 24.844C114.829 25.0347 114.365 25.13 113.854 25.13ZM111.605 21.633C111.605 21.9883 111.661 22.3177 111.774 22.621C111.895 22.9243 112.055 23.1887 112.255 23.414C112.463 23.6393 112.701 23.817 112.97 23.947C113.247 24.077 113.542 24.142 113.854 24.142C114.166 24.142 114.456 24.077 114.725 23.947C115.002 23.817 115.245 23.6393 115.453 23.414C115.661 23.18 115.821 22.9113 115.934 22.608C116.055 22.296 116.116 21.9623 116.116 21.607C116.116 21.2603 116.055 20.9353 115.934 20.632C115.821 20.32 115.661 20.0513 115.453 19.826C115.245 19.592 115.002 19.41 114.725 19.28C114.456 19.15 114.166 19.085 113.854 19.085C113.542 19.085 113.247 19.1543 112.97 19.293C112.701 19.423 112.463 19.605 112.255 19.839C112.055 20.0643 111.895 20.333 111.774 20.645C111.661 20.9483 111.605 21.2777 111.605 21.633ZM123.521 19.215C122.949 19.2323 122.442 19.3797 122 19.657C121.567 19.9343 121.259 20.32 121.077 20.814V25H119.933V18.214H120.999V19.787C121.233 19.319 121.541 18.9333 121.922 18.63C122.303 18.318 122.711 18.162 123.144 18.162C123.231 18.162 123.304 18.162 123.365 18.162C123.426 18.162 123.478 18.1663 123.521 18.175V19.215ZM128.972 25.13C128.461 25.13 127.993 25.039 127.568 24.857C127.143 24.6663 126.779 24.4107 126.476 24.09C126.173 23.7693 125.934 23.3967 125.761 22.972C125.596 22.5387 125.514 22.0837 125.514 21.607C125.514 21.1303 125.596 20.6797 125.761 20.255C125.934 19.8303 126.173 19.4577 126.476 19.137C126.788 18.8163 127.156 18.565 127.581 18.383C128.006 18.1923 128.474 18.097 128.985 18.097C129.496 18.097 129.96 18.1923 130.376 18.383C130.801 18.5737 131.16 18.8293 131.455 19.15C131.75 19.462 131.975 19.8303 132.131 20.255C132.296 20.671 132.378 21.1043 132.378 21.555C132.378 21.6503 132.374 21.737 132.365 21.815C132.365 21.893 132.361 21.9537 132.352 21.997H126.723C126.749 22.335 126.827 22.6427 126.957 22.92C127.087 23.1973 127.256 23.4357 127.464 23.635C127.672 23.8343 127.906 23.9903 128.166 24.103C128.435 24.2157 128.716 24.272 129.011 24.272C129.219 24.272 129.423 24.246 129.622 24.194C129.821 24.1333 130.008 24.0553 130.181 23.96C130.354 23.8647 130.506 23.7477 130.636 23.609C130.775 23.4703 130.879 23.3143 130.948 23.141L131.936 23.414C131.823 23.6653 131.667 23.895 131.468 24.103C131.277 24.311 131.052 24.493 130.792 24.649C130.541 24.7963 130.259 24.9133 129.947 25C129.635 25.0867 129.31 25.13 128.972 25.13ZM131.299 21.152C131.273 20.8313 131.191 20.5367 131.052 20.268C130.922 19.9907 130.753 19.7567 130.545 19.566C130.346 19.3753 130.112 19.228 129.843 19.124C129.574 19.0113 129.288 18.955 128.985 18.955C128.682 18.955 128.396 19.0113 128.127 19.124C127.858 19.228 127.62 19.3797 127.412 19.579C127.213 19.7697 127.048 19.9993 126.918 20.268C126.797 20.5367 126.723 20.8313 126.697 21.152H131.299Z" fill="black"/>
</svg>
