<svg width="22" height="23" viewBox="0 0 22 23" fill="none" xmlns="http://www.w3.org/2000/svg">
<path fill-rule="evenodd" clip-rule="evenodd" d="M11.0012 0.972656C8.10424 0.972656 7.74068 0.985323 6.60289 1.0371C5.46733 1.0891 4.69221 1.26888 4.01398 1.53266C3.31242 1.80511 2.7173 2.16956 2.1244 2.76268C1.53106 3.35557 1.16662 3.95069 0.89328 4.65203C0.628832 5.33048 0.448831 6.10582 0.397719 7.24094C0.34683 8.37873 0.333496 8.74251 0.333496 11.6394C0.333496 14.5364 0.346385 14.8988 0.397941 16.0366C0.450164 17.1722 0.629944 17.9473 0.893502 18.6255C1.16617 19.3271 1.53062 19.9222 2.12374 20.5151C2.71641 21.1084 3.31153 21.4738 4.01265 21.7462C4.69132 22.01 5.46666 22.1898 6.60201 22.2418C7.73979 22.2935 8.10313 22.3062 10.9998 22.3062C13.897 22.3062 14.2594 22.2935 15.3972 22.2418C16.5328 22.1898 17.3088 22.01 17.9875 21.7462C18.6888 21.4738 19.283 21.1084 19.8757 20.5151C20.469 19.9222 20.8335 19.3271 21.1068 18.6257C21.369 17.9473 21.549 17.1719 21.6024 16.0368C21.6535 14.899 21.6668 14.5364 21.6668 11.6394C21.6668 8.74251 21.6535 8.37896 21.6024 7.24117C21.549 6.1056 21.369 5.33048 21.1068 4.65225C20.8335 3.95069 20.469 3.35557 19.8757 2.76268C19.2824 2.16934 18.689 1.80489 17.9868 1.53266C17.3068 1.26888 16.5312 1.0891 15.3957 1.0371C14.2579 0.985323 13.8956 0.972656 10.9978 0.972656H11.0012ZM10.0443 2.8949C10.3283 2.89445 10.6452 2.8949 11.0012 2.8949C13.8493 2.8949 14.1868 2.90512 15.3115 2.95623C16.3515 3.00379 16.916 3.17757 17.292 3.32357C17.7897 3.5169 18.1446 3.74802 18.5178 4.12135C18.8911 4.49469 19.1222 4.85025 19.316 5.34803C19.462 5.72359 19.636 6.28804 19.6833 7.32805C19.7344 8.45251 19.7455 8.79029 19.7455 11.637C19.7455 14.4837 19.7344 14.8215 19.6833 15.9459C19.6358 16.9859 19.462 17.5504 19.316 17.9259C19.1227 18.4237 18.8911 18.7782 18.5178 19.1513C18.1444 19.5246 17.79 19.7557 17.292 19.9491C16.9164 20.0957 16.3515 20.2691 15.3115 20.3166C14.187 20.3677 13.8493 20.3789 11.0012 20.3789C8.15298 20.3789 7.81542 20.3677 6.69096 20.3166C5.65095 20.2686 5.0865 20.0949 4.71028 19.9489C4.21249 19.7555 3.85694 19.5244 3.4836 19.1511C3.11026 18.7777 2.87915 18.4231 2.68537 17.9251C2.53937 17.5495 2.36536 16.985 2.31803 15.945C2.26692 14.8206 2.2567 14.4828 2.2567 11.6343C2.2567 8.78585 2.26692 8.44984 2.31803 7.32539C2.36559 6.28538 2.53937 5.72093 2.68537 5.34492C2.8787 4.84714 3.11026 4.49158 3.4836 4.11824C3.85694 3.7449 4.21249 3.51379 4.71028 3.32001C5.08628 3.17334 5.65095 3.00001 6.69096 2.95223C7.67497 2.90779 8.05631 2.89445 10.0443 2.89223V2.8949ZM16.6949 4.66583C15.9882 4.66583 15.4149 5.2385 15.4149 5.9454C15.4149 6.65208 15.9882 7.22541 16.6949 7.22541C17.4016 7.22541 17.9749 6.65208 17.9749 5.9454C17.9749 5.23873 17.4016 4.66539 16.6949 4.66539V4.66583ZM11.001 6.16148C7.97585 6.16148 5.52316 8.61417 5.52316 11.6393C5.52316 14.6645 7.97585 17.116 11.001 17.116C14.0261 17.116 16.4779 14.6645 16.4779 11.6393C16.4779 8.61417 14.0259 6.16148 11.0008 6.16148H11.001ZM11.0012 8.08391C12.9648 8.08391 14.5568 9.67571 14.5568 11.6395C14.5568 13.6031 12.9648 15.1951 11.0012 15.1951C9.03739 15.1951 7.44559 13.6031 7.44559 11.6395C7.44559 9.67571 9.03739 8.08391 11.0012 8.08391Z" fill="white"/>
</svg>
