<svg width="40" height="40" viewBox="0 0 40 40" fill="none" xmlns="http://www.w3.org/2000/svg">
<path fill-rule="evenodd" clip-rule="evenodd" d="M20.0019 0C14.5702 0 13.8885 0.0237503 11.7551 0.120835C9.62593 0.218336 8.17259 0.555422 6.90091 1.05001C5.58547 1.56085 4.46963 2.24419 3.35795 3.35629C2.24544 4.46796 1.5621 5.58381 1.04959 6.89882C0.553756 8.17092 0.216252 9.62468 0.120418 11.753C0.0250003 13.8864 0 14.5685 0 20.0002C0 25.4319 0.0241669 26.1115 0.120835 28.2449C0.218752 30.3741 0.555839 31.8274 1.05001 33.0991C1.56127 34.4145 2.24461 35.5304 3.3567 36.6421C4.46796 37.7546 5.58381 38.4396 6.89841 38.9504C8.17092 39.445 9.62468 39.7821 11.7535 39.8796C13.8868 39.9767 14.5681 40.0004 19.9994 40.0004C25.4315 40.0004 26.1111 39.9767 28.2445 39.8796C30.3737 39.7821 31.8287 39.445 33.1012 38.9504C34.4162 38.4396 35.5304 37.7546 36.6416 36.6421C37.7541 35.5304 38.4375 34.4145 38.95 33.0995C39.4417 31.8274 39.7792 30.3737 39.8792 28.2453C39.975 26.1119 40 25.4319 40 20.0002C40 14.5685 39.975 13.8868 39.8792 11.7535C39.7792 9.62427 39.4417 8.17092 38.95 6.89924C38.4375 5.58381 37.7541 4.46796 36.6416 3.35629C35.5291 2.24377 34.4166 1.56043 33.0999 1.05001C31.8249 0.555422 30.3707 0.218336 28.2415 0.120835C26.1082 0.0237503 25.429 0 19.9956 0H20.0019ZM18.2078 3.6044C18.7403 3.60356 19.3345 3.6044 20.002 3.6044C25.3421 3.6044 25.975 3.62356 28.0838 3.7194C30.0338 3.80856 31.0921 4.1344 31.7971 4.40815C32.7305 4.77066 33.3959 5.204 34.0955 5.904C34.7955 6.60401 35.2288 7.27068 35.5922 8.20403C35.8659 8.9082 36.1922 9.96655 36.2809 11.9166C36.3768 14.0249 36.3976 14.6583 36.3976 19.9958C36.3976 25.3334 36.3768 25.9667 36.2809 28.0751C36.1918 30.0251 35.8659 31.0834 35.5922 31.7876C35.2297 32.721 34.7955 33.3855 34.0955 34.0851C33.3955 34.7851 32.7309 35.2185 31.7971 35.581C31.093 35.856 30.0338 36.181 28.0838 36.2702C25.9754 36.366 25.3421 36.3868 20.002 36.3868C14.6615 36.3868 14.0286 36.366 11.9203 36.2702C9.97024 36.1802 8.91189 35.8543 8.20647 35.5806C7.27313 35.2181 6.60645 34.7847 5.90645 34.0847C5.20644 33.3847 4.7731 32.7197 4.40976 31.7859C4.13601 31.0818 3.80976 30.0234 3.72101 28.0734C3.62517 25.965 3.606 25.3317 3.606 19.9908C3.606 14.6499 3.62517 14.0199 3.72101 11.9116C3.81017 9.96155 4.13601 8.9032 4.40976 8.19819C4.77227 7.26485 5.20644 6.59818 5.90645 5.89817C6.60645 5.19816 7.27313 4.76482 8.20647 4.40149C8.91148 4.12648 9.97024 3.80148 11.9203 3.7119C13.7653 3.62856 14.4803 3.60356 18.2078 3.5994V3.6044ZM30.6777 6.92451C29.3526 6.92451 28.2776 7.99827 28.2776 9.3237C28.2776 10.6487 29.3526 11.7237 30.6777 11.7237C32.0027 11.7237 33.0777 10.6487 33.0777 9.3237C33.0777 7.99869 32.0027 6.92368 30.6777 6.92368V6.92451ZM20.0016 9.72885C14.3294 9.72885 9.73063 14.3277 9.73063 19.9998C9.73063 25.6719 14.3294 30.2687 20.0016 30.2687C25.6737 30.2687 30.2708 25.6719 30.2708 19.9998C30.2708 14.3277 25.6733 9.72885 20.0012 9.72885H20.0016ZM20.0019 13.3337C23.6836 13.3337 26.6686 16.3184 26.6686 20.0005C26.6686 23.6822 23.6836 26.6672 20.0019 26.6672C16.3198 26.6672 13.3352 23.6822 13.3352 20.0005C13.3352 16.3184 16.3198 13.3337 20.0019 13.3337Z" fill="#D5A368"/>
</svg>
