<svg width="48" height="33" viewBox="0 0 48 33" fill="none" xmlns="http://www.w3.org/2000/svg">
<path fill-rule="evenodd" clip-rule="evenodd" d="M0 3C0 1.34315 1.34315 0 3 0H44.1428C45.7997 0 47.1428 1.34315 47.1428 3V29.8571C47.1428 31.514 45.7997 32.8571 44.1428 32.8571H3C1.34315 32.8571 0 31.514 0 29.8571V3Z" fill="#1B3D92"/>
<path opacity="0.68" fill-rule="evenodd" clip-rule="evenodd" d="M29.8181 12.3567C30.032 10.979 29.8166 10.0418 29.079 9.19256C28.2668 8.25785 26.7997 7.85742 24.9225 7.85742H19.4736C19.09 7.85742 18.7632 8.13935 18.7036 8.52228L16.4345 23.0555C16.3899 23.3423 16.6093 23.6015 16.8965 23.6015H20.2604L20.0282 25.0887C19.9891 25.3396 20.1809 25.5663 20.4324 25.5663H23.2679C23.6034 25.5663 23.8891 25.3197 23.9415 24.9848L23.9693 24.839L24.5034 21.4177L24.5379 21.2286C24.5902 20.8939 24.8759 20.6469 25.2115 20.6469H25.6356C28.3825 20.6469 30.5334 19.5198 31.1618 16.2597C31.4245 14.8975 31.2886 13.7604 30.5941 12.961C30.3843 12.7196 30.1229 12.5198 29.8181 12.3567Z" fill="white"/>
<path opacity="0.7" fill-rule="evenodd" clip-rule="evenodd" d="M29.8181 12.3567C30.032 10.979 29.8166 10.0418 29.079 9.19256C28.2668 8.25785 26.7997 7.85742 24.9225 7.85742H19.4736C19.09 7.85742 18.7632 8.13935 18.7036 8.52228L16.4345 23.0555C16.3899 23.3423 16.6093 23.6015 16.8965 23.6015H20.2604L21.1054 18.1889L21.0791 18.3587C21.139 17.9759 21.4627 17.6938 21.8465 17.6938H23.4454C26.5854 17.6938 29.0441 16.4052 29.7623 12.6787C29.7838 12.5686 29.8018 12.4617 29.8181 12.3567Z" fill="white"/>
<path fill-rule="evenodd" clip-rule="evenodd" d="M22.0132 12.3749C22.0491 12.1448 22.1956 11.9561 22.3925 11.8608C22.482 11.8176 22.5822 11.7934 22.687 11.7934H26.9582C27.4643 11.7934 27.9361 11.8269 28.3673 11.8971C28.4906 11.9171 28.6106 11.9402 28.7272 11.9664C28.8436 11.9925 28.9568 12.0216 29.0663 12.054C29.1211 12.0701 29.1748 12.0872 29.2279 12.1049C29.4397 12.176 29.637 12.2597 29.8184 12.3569C30.0323 10.9792 29.817 10.0419 29.0793 9.19274C28.2668 8.25785 26.7997 7.85742 24.9225 7.85742H19.4736C19.09 7.85742 18.7632 8.13935 18.7036 8.52228L16.4345 23.0555C16.3899 23.3423 16.6093 23.6015 16.8965 23.6015H20.2604L21.1054 18.1889L22.0132 12.3749Z" fill="white"/>
</svg>
