<svg width="19" height="19" viewBox="0 0 19 19" fill="none" xmlns="http://www.w3.org/2000/svg">
<path fill-rule="evenodd" clip-rule="evenodd" d="M18.7618 17.7563L14.4944 13.5119C17.4845 10.5034 17.5756 5.67385 14.7011 2.55462C11.8266 -0.564605 7.00578 -0.867542 3.76343 1.86731C0.521074 4.60217 0.00689697 9.40509 2.59685 12.7643C5.1868 16.1236 9.96253 16.848 13.4322 14.4079L17.7827 18.7585C18.0557 19.0128 18.481 19.0053 18.7448 18.7415C19.0087 18.4777 19.0162 18.0523 18.7618 17.7794V17.7563ZM2.45425 7.96981C2.45425 4.39886 5.34908 1.50403 8.92004 1.50403C12.491 1.50403 15.3858 4.39886 15.3858 7.96981C15.3858 11.5408 12.491 14.4356 8.92004 14.4356C5.34908 14.4356 2.45425 11.5408 2.45425 7.96981Z" fill="black"/>
</svg>
