<svg width="156" height="41" viewBox="0 0 156 41" fill="none" xmlns="http://www.w3.org/2000/svg">
<path d="M22.1155 25.5605C22.0876 25.5326 22.0659 25.4986 22.0412 25.4707C20.4626 26.5107 18.5745 27.1174 16.544 27.1174C11.019 27.1174 6.54024 22.6386 6.54024 17.1136C6.54024 11.5886 11.019 7.10976 16.544 7.10976C22.069 7.10976 26.5479 11.5886 26.5479 17.1136C26.5479 19.1441 25.9412 21.0352 24.9012 22.6107C24.9321 22.6355 24.9631 22.6571 24.9909 22.685L28.99 26.684C31.3269 23.7312 32.8559 20.4224 32.8559 16.4295C32.8559 7.35738 25.5017 0 16.4295 0C7.35738 0 0 7.35428 0 16.4295C0 21.7193 2.81976 25.8638 6.38238 29.4295L16.5936 40.4455L26.2693 29.7174L22.1155 25.5605Z" fill="#A6CD39"/>
<path d="M16.544 10.5762C12.9349 10.5762 10.0068 13.5043 10.0068 17.1133C10.0068 20.7224 12.9349 23.6505 16.544 23.6505C20.153 23.6505 23.0811 20.7255 23.0811 17.1133C23.0811 13.5012 20.1561 10.5762 16.544 10.5762ZM18.8499 17.5343C17.4509 17.5343 16.3149 16.3983 16.3149 14.9993C16.3149 13.6002 17.4509 12.4643 18.8499 12.4643C20.249 12.4643 21.3849 13.6002 21.3849 14.9993C21.3849 16.3983 20.249 17.5343 18.8499 17.5343Z" fill="#A6CD39"/>
<path d="M38.3192 25.6253C38.2171 25.5418 38.1118 25.3994 38.1118 25.2137C38.1118 24.9258 38.3594 24.6782 38.6473 24.6782C38.7928 24.6782 38.9166 24.7401 38.9971 24.802C40.4394 26.102 41.8849 26.6777 43.8628 26.6777C46.0263 26.6777 47.5121 25.4613 47.5121 23.8115V23.7713C47.5121 22.2453 46.7073 21.3601 43.4294 20.6977C39.9659 19.9951 38.5637 18.822 38.5637 16.6368V16.5965C38.5637 14.4515 40.523 12.8018 43.2035 12.8018C45.1411 12.8018 46.4813 13.297 47.803 14.2875C47.9052 14.371 48.029 14.5134 48.029 14.7208C48.029 15.0087 47.7813 15.2563 47.4935 15.2563C47.3697 15.2563 47.2459 15.216 47.1437 15.1325C45.8871 14.1637 44.6273 13.7706 43.1632 13.7706C41.0399 13.7706 39.6378 14.987 39.6378 16.4913V16.5315C39.6378 18.0575 40.4209 18.9861 43.8442 19.6856C47.184 20.3665 48.5861 21.5613 48.5861 23.666V23.7063C48.5861 26.037 46.5866 27.6434 43.8009 27.6434C41.6404 27.6465 39.9504 26.9656 38.3192 25.6253Z" fill="white"/>
<path d="M52.0868 13.471C52.0868 13.1832 52.3344 12.9355 52.6222 12.9355H52.7244C52.9503 12.9355 53.1175 13.0594 53.2599 13.2451L58.8901 21.5341L64.5203 13.2451C64.6441 13.0594 64.8299 12.9355 65.0558 12.9355H65.1579C65.4458 12.9355 65.6934 13.1832 65.6934 13.471V26.9786C65.6934 27.2665 65.4458 27.5141 65.1579 27.5141C64.8701 27.5141 64.6225 27.2665 64.6225 26.9786V14.8948L59.3234 22.6051C59.1996 22.7908 59.0541 22.8744 58.8684 22.8744C58.6827 22.8744 58.5372 22.7908 58.4134 22.6051L53.1144 14.8948V27.0003C53.1144 27.2882 52.8884 27.5172 52.5975 27.5172C52.3096 27.5172 52.0806 27.2913 52.0806 27.0003V13.471H52.0868Z" fill="white"/>
<path d="M68.8319 26.7706L74.9976 13.4085C75.1431 13.099 75.3473 12.8916 75.7188 12.8916H75.759C76.1304 12.8916 76.3347 13.099 76.4802 13.4085L82.6242 26.7304C82.6861 26.8542 82.7078 26.9564 82.7078 27.0616C82.7078 27.3309 82.4819 27.5568 82.1909 27.5568C81.9433 27.5568 81.7576 27.3711 81.6554 27.1452L79.9654 23.434L75.7188 14.1142L69.7604 27.1668C69.6583 27.4145 69.4912 27.5599 69.2435 27.5599C68.9742 27.5599 68.7483 27.3526 68.7483 27.1049C68.7483 27.0183 68.77 26.8945 68.8319 26.7706Z" fill="white"/>
<path d="M85.7687 13.5013C85.7687 13.2134 86.0163 12.9658 86.3042 12.9658H91.8292C93.6028 12.9658 95.0266 13.523 95.8902 14.3896C96.5711 15.0706 96.9828 16.0394 96.9828 17.0701V17.1103C96.9828 19.5215 95.1875 20.9051 92.7547 21.2332L96.859 26.5539C96.9611 26.6777 97.023 26.8015 97.023 26.9253C97.023 27.2132 96.7537 27.4825 96.4659 27.4825C96.2585 27.4825 96.1161 27.3587 95.9923 27.1946L91.5599 21.422H86.8366V26.947C86.8366 27.2349 86.589 27.4825 86.3011 27.4825C86.0132 27.4825 85.7656 27.2349 85.7656 26.947V13.5013H85.7687ZM91.7085 20.4501C94.1197 20.4501 95.9149 19.2337 95.9149 17.1506V17.1103C95.9149 15.1727 94.389 13.9563 91.7704 13.9563H86.8428V20.4532H91.7085V20.4501Z" fill="white"/>
<path d="M104.037 13.9563H99.4191C99.1498 13.9563 98.9238 13.7303 98.9238 13.4611C98.9238 13.1918 99.1498 12.9658 99.4191 12.9658H109.729C109.999 12.9658 110.225 13.1918 110.225 13.4611C110.225 13.7303 109.999 13.9563 109.729 13.9563H105.111V26.947C105.111 27.2349 104.864 27.4825 104.576 27.4825C104.288 27.4825 104.04 27.2349 104.04 26.947V13.9563H104.037Z" fill="white"/>
<path d="M128.653 20.2647V20.2245C128.653 16.3276 131.479 12.7588 135.788 12.7588C137.951 12.7588 139.375 13.3562 140.715 14.3683C140.839 14.4705 140.923 14.6159 140.923 14.8016C140.923 15.0895 140.675 15.3371 140.387 15.3371C140.304 15.3371 140.18 15.2969 140.056 15.1916C138.942 14.325 137.725 13.7276 135.726 13.7276C132.219 13.7276 129.768 16.6959 129.768 20.1812V20.2245C129.768 23.9574 132.098 26.74 135.955 26.74C137.79 26.74 139.502 25.9785 140.555 25.0902V20.9457H136.06C135.791 20.9457 135.565 20.7197 135.565 20.4505C135.565 20.1812 135.791 19.9552 136.06 19.9552H141.05C141.338 19.9552 141.585 20.2028 141.585 20.4907V25.214C141.585 25.4214 141.44 25.6474 141.214 25.8331C139.852 26.8855 138.06 27.6902 135.915 27.6902C131.355 27.6902 128.653 24.3288 128.653 20.2647Z" fill="white"/>
<path d="M145.547 26.9035V13.5413C145.547 13.2535 145.795 13.0059 146.083 13.0059H155.403C155.672 13.0059 155.898 13.2318 155.898 13.5011C155.898 13.7704 155.672 13.9963 155.403 13.9963H146.618V19.6668H154.474C154.743 19.6668 154.969 19.8928 154.969 20.162C154.969 20.4313 154.743 20.6573 154.474 20.6573H146.618V26.4516H155.505C155.774 26.4516 156 26.6775 156 26.9468C156 27.2161 155.774 27.4421 155.505 27.4421H146.08C145.795 27.4421 145.547 27.1944 145.547 26.9035Z" fill="white"/>
<path d="M113.378 26.7706L119.544 13.4085C119.69 13.099 119.894 12.8916 120.265 12.8916H120.306C120.677 12.8916 120.881 13.099 121.027 13.4085L127.171 26.7304C127.233 26.8542 127.254 26.9564 127.254 27.0616C127.254 27.3309 127.029 27.5568 126.738 27.5568C126.49 27.5568 126.304 27.3711 126.202 27.1452L124.512 23.434L120.265 14.1142L114.307 27.1668C114.205 27.4145 114.038 27.5599 113.79 27.5599C113.521 27.5599 113.295 27.3526 113.295 27.1049C113.298 27.0183 113.317 26.8945 113.378 26.7706Z" fill="white"/>
</svg>
